<svg width="347" height="88" viewBox="0 0 347 88" fill="none" xmlns="http://www.w3.org/2000/svg">
<rect x="191" y="15" width="73" height="73" rx="36.5" fill="#DB2777"/>
<path d="M32 25.328V32.56H13.376V44.016H27.648V51.12H13.376V70H4.416V25.328H32ZM36.0495 52.144C36.0495 48.56 36.7535 45.3813 38.1615 42.608C39.6122 39.8347 41.5535 37.7013 43.9855 36.208C46.4602 34.7147 49.2122 33.968 52.2415 33.968C54.8868 33.968 57.1908 34.5013 59.1535 35.568C61.1588 36.6347 62.7588 37.9787 63.9535 39.6V34.544H72.9775V70H63.9535V64.816C62.8015 66.48 61.2015 67.8667 59.1535 68.976C57.1482 70.0427 54.8228 70.576 52.1775 70.576C49.1908 70.576 46.4602 69.808 43.9855 68.272C41.5535 66.736 39.6122 64.5813 38.1615 61.808C36.7535 58.992 36.0495 55.7707 36.0495 52.144ZM63.9535 52.272C63.9535 50.096 63.5268 48.24 62.6735 46.704C61.8202 45.1253 60.6682 43.9307 59.2175 43.12C57.7668 42.2667 56.2095 41.84 54.5455 41.84C52.8815 41.84 51.3455 42.2453 49.9375 43.056C48.5295 43.8667 47.3775 45.0613 46.4815 46.64C45.6282 48.176 45.2015 50.0107 45.2015 52.144C45.2015 54.2773 45.6282 56.1547 46.4815 57.776C47.3775 59.3547 48.5295 60.5707 49.9375 61.424C51.3882 62.2773 52.9242 62.704 54.5455 62.704C56.2095 62.704 57.7668 62.2987 59.2175 61.488C60.6682 60.6347 61.8202 59.44 62.6735 57.904C63.5268 56.3253 63.9535 54.448 63.9535 52.272ZM95.2965 70.576C92.3952 70.576 89.7925 70.064 87.4885 69.04C85.1845 67.9733 83.3498 66.544 81.9845 64.752C80.6618 62.96 79.9365 60.976 79.8085 58.8H88.8325C89.0032 60.1653 89.6645 61.296 90.8165 62.192C92.0112 63.088 93.4832 63.536 95.2325 63.536C96.9392 63.536 98.2618 63.1947 99.2005 62.512C100.182 61.8293 100.673 60.9547 100.673 59.888C100.673 58.736 100.075 57.8827 98.8805 57.328C97.7285 56.7307 95.8725 56.0907 93.3125 55.408C90.6672 54.768 88.4912 54.1067 86.7845 53.424C85.1205 52.7413 83.6698 51.696 82.4325 50.288C81.2378 48.88 80.6405 46.9813 80.6405 44.592C80.6405 42.6293 81.1952 40.8373 82.3045 39.216C83.4565 37.5947 85.0778 36.3147 87.1685 35.376C89.3018 34.4373 91.7978 33.968 94.6565 33.968C98.8805 33.968 102.251 35.0347 104.769 37.168C107.286 39.2587 108.673 42.096 108.929 45.68H100.353C100.225 44.272 99.6272 43.1627 98.5605 42.352C97.5365 41.4987 96.1498 41.072 94.4005 41.072C92.7792 41.072 91.5205 41.3707 90.6245 41.968C89.7712 42.5653 89.3445 43.3973 89.3445 44.464C89.3445 45.6587 89.9418 46.576 91.1365 47.216C92.3312 47.8133 94.1872 48.432 96.7045 49.072C99.2645 49.712 101.377 50.3733 103.041 51.056C104.705 51.7387 106.134 52.8053 107.329 54.256C108.566 55.664 109.206 57.5413 109.249 59.888C109.249 61.936 108.673 63.7707 107.521 65.392C106.411 67.0133 104.79 68.2933 102.657 69.232C100.566 70.128 98.1125 70.576 95.2965 70.576ZM127.036 41.904V59.056C127.036 60.2507 127.313 61.1253 127.868 61.68C128.465 62.192 129.446 62.448 130.812 62.448H134.972V70H129.34C121.788 70 118.012 66.3307 118.012 58.992V41.904H113.788V34.544H118.012V25.776H127.036V34.544H134.972V41.904H127.036ZM206.348 70.576C202.934 70.576 199.862 69.8293 197.132 68.336C194.401 66.8 192.246 64.6453 190.668 61.872C189.132 59.0987 188.364 55.8987 188.364 52.272C188.364 48.6453 189.153 45.4453 190.732 42.672C192.353 39.8987 194.55 37.7653 197.324 36.272C200.097 34.736 203.19 33.968 206.604 33.968C210.017 33.968 213.11 34.736 215.884 36.272C218.657 37.7653 220.833 39.8987 222.412 42.672C224.033 45.4453 224.844 48.6453 224.844 52.272C224.844 55.8987 224.012 59.0987 222.347 61.872C220.726 64.6453 218.508 66.8 215.692 68.336C212.918 69.8293 209.804 70.576 206.348 70.576ZM206.348 62.768C207.969 62.768 209.484 62.384 210.892 61.616C212.342 60.8053 213.494 59.6107 214.348 58.032C215.201 56.4533 215.628 54.5333 215.628 52.272C215.628 48.9013 214.732 46.32 212.94 44.528C211.19 42.6933 209.036 41.776 206.476 41.776C203.916 41.776 201.761 42.6933 200.012 44.528C198.305 46.32 197.452 48.9013 197.452 52.272C197.452 55.6427 198.284 58.2453 199.948 60.08C201.654 61.872 203.788 62.768 206.348 62.768ZM247.16 70.576C243.747 70.576 240.675 69.8293 237.944 68.336C235.213 66.8 233.059 64.6453 231.48 61.872C229.944 59.0987 229.176 55.8987 229.176 52.272C229.176 48.6453 229.965 45.4453 231.544 42.672C233.165 39.8987 235.363 37.7653 238.136 36.272C240.909 34.736 244.003 33.968 247.416 33.968C250.829 33.968 253.923 34.736 256.696 36.272C259.469 37.7653 261.645 39.8987 263.224 42.672C264.845 45.4453 265.656 48.6453 265.656 52.272C265.656 55.8987 264.824 59.0987 263.16 61.872C261.539 64.6453 259.32 66.8 256.504 68.336C253.731 69.8293 250.616 70.576 247.16 70.576ZM247.16 62.768C248.781 62.768 250.296 62.384 251.704 61.616C253.155 60.8053 254.307 59.6107 255.16 58.032C256.013 56.4533 256.44 54.5333 256.44 52.272C256.44 48.9013 255.544 46.32 253.752 44.528C252.003 42.6933 249.848 41.776 247.288 41.776C244.728 41.776 242.573 42.6933 240.824 44.528C239.117 46.32 238.264 48.9013 238.264 52.272C238.264 55.6427 239.096 58.2453 240.76 60.08C242.467 61.872 244.6 62.768 247.16 62.768Z" fill="white"/>
<path d="M184.25 25.328V32.56H165.626V44.016H179.898V51.12H165.626V70H156.666V25.328H184.25ZM269.924 52.144C269.924 48.56 270.628 45.3813 272.036 42.608C273.487 39.8347 275.45 37.7013 277.925 36.208C280.399 34.7147 283.151 33.968 286.181 33.968C288.485 33.968 290.682 34.48 292.773 35.504C294.863 36.4853 296.527 37.808 297.765 39.472V22.64H306.853V70H297.765V64.752C296.655 66.5013 295.098 67.9093 293.093 68.976C291.087 70.0427 288.762 70.576 286.117 70.576C283.13 70.576 280.399 69.808 277.925 68.272C275.45 66.736 273.487 64.5813 272.036 61.808C270.628 58.992 269.924 55.7707 269.924 52.144ZM297.829 52.272C297.829 50.096 297.402 48.24 296.549 46.704C295.695 45.1253 294.543 43.9307 293.093 43.12C291.642 42.2667 290.085 41.84 288.421 41.84C286.757 41.84 285.221 42.2453 283.812 43.056C282.405 43.8667 281.253 45.0613 280.357 46.64C279.503 48.176 279.077 50.0107 279.077 52.144C279.077 54.2773 279.503 56.1547 280.357 57.776C281.253 59.3547 282.405 60.5707 283.812 61.424C285.263 62.2773 286.799 62.704 288.421 62.704C290.085 62.704 291.642 62.2987 293.093 61.488C294.543 60.6347 295.695 59.44 296.549 57.904C297.402 56.3253 297.829 54.448 297.829 52.272ZM329.172 70.576C326.27 70.576 323.668 70.064 321.364 69.04C319.06 67.9733 317.225 66.544 315.86 64.752C314.537 62.96 313.812 60.976 313.684 58.8H322.708C322.878 60.1653 323.54 61.296 324.692 62.192C325.886 63.088 327.358 63.536 329.108 63.536C330.814 63.536 332.137 63.1947 333.076 62.512C334.057 61.8293 334.548 60.9547 334.548 59.888C334.548 58.736 333.95 57.8827 332.756 57.328C331.604 56.7307 329.748 56.0907 327.188 55.408C324.542 54.768 322.366 54.1067 320.66 53.424C318.996 52.7413 317.545 51.696 316.308 50.288C315.113 48.88 314.516 46.9813 314.516 44.592C314.516 42.6293 315.07 40.8373 316.18 39.216C317.332 37.5947 318.953 36.3147 321.044 35.376C323.177 34.4373 325.673 33.968 328.532 33.968C332.756 33.968 336.126 35.0347 338.644 37.168C341.161 39.2587 342.548 42.096 342.804 45.68H334.228C334.1 44.272 333.502 43.1627 332.436 42.352C331.412 41.4987 330.025 41.072 328.276 41.072C326.654 41.072 325.396 41.3707 324.5 41.968C323.646 42.5653 323.22 43.3973 323.22 44.464C323.22 45.6587 323.817 46.576 325.012 47.216C326.206 47.8133 328.062 48.432 330.58 49.072C333.14 49.712 335.252 50.3733 336.916 51.056C338.58 51.7387 340.009 52.8053 341.204 54.256C342.441 55.664 343.081 57.5413 343.124 59.888C343.124 61.936 342.548 63.7707 341.396 65.392C340.286 67.0133 338.665 68.2933 336.532 69.232C334.441 70.128 331.988 70.576 329.172 70.576Z" fill="black"/>
</svg>
